<?xml version="1.0" standalone="no"?>
<!DOCTYPE svg PUBLIC "-//W3C//DTD SVG 1.1//EN" "http://www.w3.org/Graphics/SVG/1.1/DTD/svg11.dtd" >
<svg xmlns="http://www.w3.org/2000/svg" xmlns:xlink="http://www.w3.org/1999/xlink" version="1.1">
<metadata>
Created by FontForge 20150318 at Fri Nov 13 16:52:55 2015
 By uniteet7
</metadata>
<defs>
<font id="PeignotLight" horiz-adv-x="1136" >
  <font-face 
    font-family="Peignot Light"
    font-weight="400"
    font-stretch="normal"
    units-per-em="2048"
    panose-1="2 11 114 0 0 0 0 0 0 0"
    ascent="1638"
    descent="-410"
    x-height="880"
    cap-height="1312"
    bbox="-160 -416 2048 1836"
    underline-thickness="0"
    underline-position="0"
    unicode-range="U+000D-25FC"
  />
<missing-glyph horiz-adv-x="748" 
d="M68 0v1365h544v-1365h-544zM136 68h408v1229h-408v-1229z" />
    <glyph glyph-name=".notdef" horiz-adv-x="748" 
d="M68 0v1365h544v-1365h-544zM136 68h408v1229h-408v-1229z" />
    <glyph glyph-name="glyph1" horiz-adv-x="0" 
 />
    <glyph glyph-name="uni000D" unicode="&#xd;" horiz-adv-x="0" 
 />
    <glyph glyph-name="space" unicode=" " horiz-adv-x="559" 
 />
    <glyph glyph-name="exclam" unicode="!" horiz-adv-x="560" 
d="M192 32q0 40 23.5 62t56.5 22q32 0 56 -22t24 -62t-23.5 -62t-56.5 -22q-32 0 -56 22t-24 62zM192 1264q0 40 23.5 62t56.5 22q32 0 56 -22t24 -62l-64 -1088h-32z" />
    <glyph glyph-name="quotedbl" unicode="&#x22;" horiz-adv-x="672" 
d="M176 864v464h112v-464h-112zM400 864v464h112v-464h-112z" />
    <glyph glyph-name="numbersign" unicode="#" 
d="M96 432v96h224l48 288h-224v96h240l64 432h96l-64 -432h256l64 432h96l-64 -432h224v-96h-240l-48 -288h240v-96h-256l-64 -432h-96l64 432h-256l-64 -432h-96l64 432h-208zM416 528h256l48 288h-256z" />
    <glyph glyph-name="dollar" unicode="$" 
d="M176 192l64 48q82 -164 192 -208l80 560q-121 60 -188 110t-99.5 115.5t-32.5 158.5q0 73 29 137.5t82 112.5t132 75.5t168 27.5q24 0 37 -1l16 128h64l-16 -128q71 -24 107 -57.5t85 -118.5l-64 -48q-44 110 -144 160l-80 -528q123 -53 189 -101t98.5 -119t32.5 -180
q0 -120 -61.5 -204t-157 -124.5t-193.5 -40.5q-24 0 -36 1l-16 -144h-64l16 144q-61 23 -104 57.5t-76 77.5t-60 89zM336 992q0 -60 27 -105t72 -76t109 -59l80 512q-288 0 -288 -272zM496 32q261 22 288 288q1 8 1 24q0 63 -33 106.5t-86 74t-90 51.5z" />
    <glyph glyph-name="percent" unicode="%" horiz-adv-x="1808" 
d="M176 944q0 173 99 278.5t237 105.5q101 0 177 -51.5t117.5 -139t41.5 -193.5q0 -70 -19 -136.5t-60 -123t-106 -90.5t-151 -34q-72 0 -150.5 39t-132 125.5t-53.5 219.5zM304 944q0 -79 25.5 -153.5t73.5 -120.5t109 -46q109 0 158.5 95.5t49.5 224.5q0 86 -25 160
t-72.5 117t-110.5 43q-69 0 -115.5 -48t-69.5 -121.5t-23 -150.5zM448 -32l816 1376h96l-816 -1376h-96zM976 352q0 190 89.5 295t246.5 105q107 0 184.5 -49t115.5 -130.5t38 -181.5q0 -13 -2 -39q0 -58 -18 -122.5t-56.5 -119t-105 -90.5t-156.5 -36q-107 0 -183 50.5
t-114.5 134t-38.5 183.5zM1104 352q0 -121 53.5 -212.5t154.5 -91.5q56 0 103.5 39t76 109.5t28.5 155.5q0 165 -55 250.5t-153 85.5q-102 0 -155 -96.5t-53 -239.5z" />
    <glyph glyph-name="ampersand" unicode="&#x26;" horiz-adv-x="1168" 
d="M96 384q0 129 26 212t90 150.5t188 149.5l-144 208q0 118 67 179t189 61q79 0 131.5 -27t79 -73.5t26.5 -103.5q0 -76 -45.5 -151.5t-127.5 -124.5l384 -576q29 68 29 159q0 61 -12.5 120t-32.5 105h80q34 -127 34 -213q0 -106 -50 -219l176 -256h-160l-96 128
q-39 -53 -99.5 -89t-130 -53.5t-138.5 -17.5q-145 0 -250.5 59.5t-159.5 159.5t-54 213zM222 426q0 -12 2 -42q9 -120 61 -200t131 -118t167 -38q61 0 120 17t110 51.5t83 79.5l-432 624q-132 -109 -187 -187.5t-55 -186.5zM352 1184l160 -224q62 32 98.5 84t36.5 108
q0 57 -39 96q-51 44 -107 44q-34 0 -63.5 -15t-52.5 -41t-33 -52z" />
    <glyph glyph-name="quotesingle" unicode="'" horiz-adv-x="336" 
d="M32 864l96 432q6 38 28 57t53 19q32 0 54 -18t22 -47q0 -20 -13 -43z" />
    <glyph glyph-name="parenleft" unicode="(" horiz-adv-x="672" 
d="M115 515q0 196 60 403t193 458l96 -64q-94 -168 -148 -374t-54 -432q0 -419 186 -842l-80 -64q-66 146 -108.5 253t-76.5 225t-51 225t-17 212z" />
    <glyph glyph-name="parenright" unicode=")" horiz-adv-x="672" 
d="M224 1312l96 64q242 -505 242 -919q0 -223 -62 -425t-180 -432l-80 64q53 101 95.5 230t66 273.5t23.5 295.5q0 142 -21 282t-64 279.5t-116 287.5z" />
    <glyph glyph-name="asterisk" unicode="*" horiz-adv-x="896" 
d="M128 1024l16 144l272 -128l-32 288h128l-32 -288l272 128l16 -144l-272 -32l208 -208l-112 -80l-144 256l-144 -256l-112 80l208 208z" />
    <glyph glyph-name="plus" unicode="+" horiz-adv-x="1216" 
d="M176 400v96h384v400h96v-400h384v-96h-384v-400h-96v400h-384z" />
    <glyph glyph-name="comma" unicode="," horiz-adv-x="561" 
d="M95 -383l96 432q6 38 28 57t53 19q32 0 54 -18t22 -47q0 -20 -13 -43z" />
    <glyph glyph-name="hyphen" unicode="-" horiz-adv-x="672" 
d="M128 272v112l448 224v-112z" />
    <glyph glyph-name="period" unicode="." horiz-adv-x="560" 
d="M208 32q0 40 23.5 62t56.5 22q32 0 56 -22t24 -62t-23.5 -62t-56.5 -22q-32 0 -56 22t-24 62z" />
    <glyph glyph-name="slash" unicode="/" horiz-adv-x="560" 
d="M16 -48l448 1376h96l-448 -1376h-96z" />
    <glyph glyph-name="zero" unicode="0" 
d="M63 558q0 33 1 50q0 111 29 236t90.5 235t164 179.5t244.5 69.5q96 0 183 -41t154.5 -122.5t105 -198t37.5 -262.5q0 -203 -68 -372.5t-185 -266.5t-259 -97q-172 0 -284 83.5t-162.5 218t-50.5 288.5zM208 608q0 -178 50 -308t131 -199t171 -69q107 0 185.5 69
t122.5 220t44 383q0 142 -43.5 272t-117.5 209t-159 79q-155 0 -240.5 -100t-114.5 -243.5t-29 -312.5z" />
    <glyph glyph-name="one" unicode="1" 
d="M384 1216v64l256 32v-1312h-128v1232z" />
    <glyph glyph-name="two" unicode="2" 
d="M112 0l640 768q97 117 97 235q0 78 -41.5 141t-108.5 99.5t-139 36.5q-75 0 -132.5 -21t-97 -61t-58 -94t-18.5 -120q0 -12 2 -40h-80q-1 12 -1 37q0 104 43 186.5t130 129.5t212 47q121 0 216.5 -48t147 -130.5t51.5 -184.5q0 -175 -143 -341l-480 -560h640v-80h-880z
" />
    <glyph glyph-name="three" unicode="3" 
d="M240 1232v80h672l-368 -480h160q52 0 93.5 -19t67 -55t25.5 -84q0 -83 -74 -178l-384 -496h-176l448 576q40 49 40 95q0 43 -32.5 70t-87.5 27h-320l368 464h-432z" />
    <glyph glyph-name="four" unicode="4" 
d="M64 416l624 896h144v-816h176v-80h-176v-416h-144v416h-624zM208 496h480v688z" />
    <glyph glyph-name="five" unicode="5" 
d="M304 0l400 528q53 74 53 137q0 46 -33 74.5t-100 28.5h-320v544h592v-80h-448v-400h224q61 0 113.5 -20.5t84 -61t31.5 -93.5q0 -81 -69 -177l-352 -480h-176z" />
    <glyph glyph-name="six" unicode="6" 
d="M174 364q0 120 50 260l240 688h144l-208 -608q92 77 218 77q85 0 160 -41t121 -125t46 -206q0 -8 -0.5 -13t-0.5 -12q-6 -91 -35.5 -166.5t-82.5 -131.5t-128.5 -87t-169.5 -31q-86 0 -167.5 45t-134 134.5t-52.5 216.5zM319 331q0 -95 34 -163t89.5 -102t117.5 -34
q117 13 186.5 110t69.5 290q0 118 -61.5 195.5t-167.5 77.5q-18 0 -27 -1q-115 -11 -171 -97t-69 -239q-1 -13 -1 -37z" />
    <glyph glyph-name="seven" unicode="7" 
d="M240 1232v80h752l-544 -1312h-144l512 1232h-576z" />
    <glyph glyph-name="eight" unicode="8" 
d="M192 400q0 127 77.5 236.5t178.5 147.5q-84 50 -127.5 127t-43.5 159q0 72 33 135t98 101t152 38q88 0 150.5 -37.5t94 -99t31.5 -134.5q0 -84 -42 -161t-122 -128q122 -37 197 -139.5t75 -244.5q-3 -102 -35.5 -181t-85.5 -131.5t-122 -80t-139 -27.5q-96 0 -181 48
t-137 142.5t-52 229.5zM338 408q0 -93 26 -180.5t77 -141.5t119 -54q58 0 102.5 30.5t73 80t43.5 116.5t15 134q0 94 -26.5 176t-79.5 132.5t-128 50.5q-108 0 -165 -100t-57 -244zM410 1062q0 -94 39.5 -162t110.5 -68q70 0 107 64t37 154q0 60 -17.5 117.5t-50 93
t-76.5 35.5q-47 0 -82 -33.5t-51.5 -85.5t-16.5 -115z" />
    <glyph glyph-name="nine" unicode="9" 
d="M176 896q0 63 20 139t66.5 146.5t129 116.5t200.5 46q86 0 153.5 -30.5t112 -85.5t67.5 -128t23 -155q0 -128 -52 -257l-288 -688h-144l256 608q-113 -66 -221 -66q-64 0 -121 24t-101 70.5t-70.5 113t-30.5 146.5zM320 896q6 -136 71.5 -209.5t155.5 -73.5q50 0 99.5 25
t87 70.5t60 116t22.5 160.5v23q0 87 -33 151t-86.5 97t-114.5 33q-67 0 -127 -41t-97.5 -125.5t-37.5 -204.5v-22z" />
    <glyph glyph-name="colon" unicode=":" horiz-adv-x="560" 
d="M208 65q0 40 23.5 62t56.5 22q32 0 56 -22t24 -62t-23.5 -62t-56.5 -22q-32 0 -56 22t-24 62zM208 591q0 40 23.5 62t56.5 22q32 0 56 -22t24 -62t-23.5 -62t-56.5 -22q-32 0 -56 22t-24 62z" />
    <glyph glyph-name="semicolon" unicode=";" horiz-adv-x="561" 
d="M111 -383l96 432q6 38 28 57t53 19q32 0 54 -18t22 -47q0 -20 -13 -43zM208 560q0 40 23.5 62t56.5 22q32 0 56 -22t24 -62t-23.5 -62t-56.5 -22q-32 0 -56 22t-24 62z" />
    <glyph glyph-name="less" unicode="&#x3c;" horiz-adv-x="1216" 
d="M160 384v96l880 416v-112l-768 -352l768 -352v-112z" />
    <glyph glyph-name="equal" unicode="=" horiz-adv-x="1216" 
d="M160 224v96h896v-96h-896zM160 544v96h896v-96h-896z" />
    <glyph glyph-name="greater" unicode="&#x3e;" horiz-adv-x="1216" 
d="M160 -32v112l768 352l-768 368v112l896 -432v-96z" />
    <glyph glyph-name="question" unicode="?" horiz-adv-x="784" 
d="M96 1072q0 125 69.5 206.5t234.5 81.5q130 0 213.5 -62t119 -141.5t35.5 -132.5q0 -114 -48 -181.5t-115.5 -107.5t-133.5 -82t-71 -93l-48 -384h-32l-32 480q0 53 37.5 80.5t126 70.5t136 89.5t52.5 127.5q0 89 -38 151t-94 91.5t-108 29.5q-95 0 -141 -32.5
t-58.5 -73.5t-24.5 -118h-80zM256 32q0 40 23.5 62t56.5 22q32 0 56 -22t24 -62t-23.5 -62t-56.5 -22q-32 0 -56 22t-24 62z" />
    <glyph glyph-name="at" unicode="@" horiz-adv-x="1632" 
d="M144 656q0 212 107.5 368.5t267 238t313.5 81.5q161 0 285 -53.5t206.5 -144t123.5 -198t41 -212.5q0 -131 -71 -251.5t-175 -195t-187 -74.5q-108 0 -127 121q-55 -55 -123 -87.5t-135 -32.5q-112 0 -190 88q-70 77 -70 205q0 114 55.5 239t142.5 212q48 48 118 77
t138 29q78 0 134.5 -41.5t73.5 -128.5l48 128h112l-192 -608q-10 -31 -10 -56q0 -51 45 -51q48 0 122 60.5t126.5 158.5t52.5 208q0 179 -84.5 294.5t-209.5 166.5t-250 51q-117 0 -221.5 -47.5t-185.5 -133t-125 -192.5t-44 -219q0 -125 43 -236.5t119.5 -194t183 -130
t230.5 -47.5q184 0 297.5 56.5t214.5 183.5h112q-41 -65 -84 -117.5t-115 -103.5t-177.5 -83t-247.5 -32q-176 6 -309.5 73.5t-215.5 170.5t-122.5 224t-40.5 236zM538 520q0 -127 102 -184q34 -19 70 -19q55 0 109 42t95.5 106.5t61.5 126.5q37 88 37 166q0 70 -29.5 119.5
t-71.5 66.5q-25 11 -56 11q-74 0 -148.5 -63.5t-115.5 -155.5q-54 -120 -54 -216z" />
    <glyph glyph-name="A" unicode="A" 
d="M16 0l544 1360l560 -1360h-160l-160 400h-528l-160 -400h-96zM304 480h464l-224 592z" />
    <glyph glyph-name="B" unicode="B" 
d="M160 0v1312h352q200 0 324 -78.5t124 -257.5q0 -63 -13.5 -107.5t-38 -75.5t-56 -53t-84.5 -52q75 -17 140.5 -63t106.5 -117.5t41 -155.5q0 -128 -54 -207t-144 -112t-202 -33h-496zM304 80h320q272 0 272 272q0 106 -53 174t-136.5 99t-178.5 31h-224v-576zM304 736
h208q137 0 220.5 53.5t83.5 186.5q0 122 -85.5 189t-250.5 67h-176v-496z" />
    <glyph glyph-name="C" unicode="C" horiz-adv-x="1280" 
d="M96 656q0 165 49 296t137.5 222.5t204.5 138.5t249 47q126 0 221.5 -34.5t160.5 -99t98 -154.5l-80 -48q-30 98 -89 155t-136 79t-175 22q-110 0 -195 -36.5t-145.5 -114t-92 -195.5t-31.5 -278q0 -151 41.5 -265.5t112 -191.5t154.5 -114t172 -37q68 0 141.5 23.5
t143.5 84.5t115 164l80 -48q-71 -125 -181 -214.5t-299 -89.5q-181 0 -331.5 95t-237.5 253.5t-87 339.5z" />
    <glyph glyph-name="D" unicode="D" horiz-adv-x="1312" 
d="M160 0v1312h368q108 0 227 -33.5t229 -114.5t179 -219.5t69 -336.5q0 -129 -61 -270.5t-200.5 -239.5t-362.5 -98h-448zM304 80h304q132 0 238.5 74.5t166 196t59.5 257.5q0 150 -48 268.5t-129.5 197t-185 118.5t-213.5 40h-192v-1152z" />
    <glyph glyph-name="E" unicode="E" horiz-adv-x="1024" 
d="M176 0v1312h752v-80h-608v-528h576v-80h-576v-544h640v-80h-784z" />
    <glyph glyph-name="F" unicode="F" horiz-adv-x="944" 
d="M176 0v1312h736v-80h-592v-544h560v-80h-560v-608h-144z" />
    <glyph glyph-name="G" unicode="G" horiz-adv-x="1360" 
d="M96 624q0 159 50 292.5t140 229.5t209.5 147t256.5 51q141 0 232 -45t139 -103t109 -156l-80 -48q-18 55 -54 106.5t-88.5 93.5t-117.5 65t-140 23q-98 0 -186.5 -41.5t-159 -126.5t-110.5 -208t-40 -280q0 -121 39 -230.5t109.5 -193.5t161.5 -130.5t194 -46.5
q86 0 179 37.5t181 115.5v368h128v-368q-24 -48 -105 -101.5t-186.5 -88t-204.5 -34.5q-151 0 -303.5 81t-252.5 234.5t-100 356.5z" />
    <glyph glyph-name="H" unicode="H" horiz-adv-x="1312" 
d="M176 0v1312h144v-608h704v608h144v-1312h-144v624h-704v-624h-144z" />
    <glyph glyph-name="I" unicode="I" horiz-adv-x="496" 
d="M176 0v1312h144v-1312h-144z" />
    <glyph glyph-name="J" unicode="J" horiz-adv-x="528" 
d="M32 0v64q192 0 192 176v1072h144v-1040q0 -134 -57.5 -203t-214.5 -69h-64z" />
    <glyph glyph-name="K" unicode="K" horiz-adv-x="944" 
d="M160 0v1328h144v-1328h-144zM320 656l512 672h112l-480 -624l528 -704h-176z" />
    <glyph glyph-name="L" unicode="L" horiz-adv-x="832" 
d="M176 0v1328h144v-1264h480v-64h-624z" />
    <glyph glyph-name="M" unicode="M" horiz-adv-x="1504" 
d="M160 0v1328h176l432 -1072l432 1072h160v-1328h-144v1120l-480 -1168l-480 1168v-1120h-96z" />
    <glyph glyph-name="N" unicode="N" horiz-adv-x="1312" 
d="M160 0v1328h128l768 -1008v1008h96v-1376l-896 1136v-1088h-96z" />
    <glyph glyph-name="O" unicode="O" horiz-adv-x="1424" 
d="M80 656q0 175 72.5 337.5t218.5 264.5t349 102q116 0 226.5 -44.5t202.5 -136.5t143.5 -223.5t51.5 -299.5q0 -213 -93 -369.5t-236.5 -237.5t-294.5 -81q-136 0 -253.5 52.5t-203.5 146.5t-134.5 220.5t-48.5 268.5zM240 656q0 -120 50.5 -262.5t159 -244t270.5 -101.5
q115 0 203.5 54.5t145.5 143t86 197t29 213.5q0 93 -24.5 199.5t-79.5 203.5t-145.5 159t-214.5 62q-120 0 -212 -56t-151 -148.5t-88 -202.5t-29 -217z" />
    <glyph glyph-name="P" unicode="P" horiz-adv-x="1056" 
d="M176 0v1328h400q120 0 207 -33t140.5 -88.5t77 -118.5t23.5 -128q0 -90 -36.5 -169.5t-129.5 -131t-250 -51.5h-288v-608h-144zM320 688h224q182 0 251 81t69 191q0 58 -17 108t-59 92t-110 65t-166 23h-192v-560z" />
    <glyph glyph-name="Q" unicode="Q" horiz-adv-x="1424" 
d="M80 656q0 133 44.5 260t127.5 226.5t203.5 158.5t264.5 59q126 0 241 -48.5t206.5 -143.5t142 -224.5t50.5 -287.5q0 -111 -36 -224t-108 -212.5t-178 -167t-238 -84.5v-128h-160v128q-120 18 -222 75.5t-178.5 149t-118 209.5t-41.5 254zM256 656q0 -147 39.5 -262.5
t100.5 -192.5t126.5 -115t117.5 -38v128h160v-128q89 18 159.5 71t122 136.5t77 185t25.5 215.5q0 93 -24.5 199.5t-79.5 203.5t-145.5 159t-214.5 62q-115 0 -203.5 -54.5t-146.5 -146t-86 -201t-28 -222.5z" />
    <glyph glyph-name="R" unicode="R" horiz-adv-x="1088" 
d="M160 0v1328h448q55 0 128 -19t142.5 -61t115.5 -114.5t46 -173.5q0 -111 -55 -187t-137 -112.5t-160 -36.5h-80l432 -624h-192l-480 704h208q172 0 238 75t66 181q0 83 -38 147.5t-114 102.5t-184 38h-240v-1248h-144z" />
    <glyph glyph-name="S" unicode="S" horiz-adv-x="944" 
d="M112 160l64 64q37 -86 105.5 -139t150.5 -53q125 0 194 80t69 191q0 83 -40 155t-111 102q-64 26 -151 63t-146 77.5t-97 104.5t-38 155q0 180 102 282t282 102q105 0 187.5 -43t116.5 -133l-64 -32q-45 79 -96.5 103.5t-143.5 24.5q-99 0 -170 -67t-71 -189q0 -21 1 -32
q10 -97 77 -142.5t216 -110.5t224.5 -139.5t75.5 -213.5q0 -22 -1 -34q-11 -190 -133 -287t-283 -97q-109 0 -196.5 56.5t-123.5 151.5z" />
    <glyph glyph-name="T" unicode="T" horiz-adv-x="784" 
d="M16 1248v80h768v-80h-304v-1248h-160v1248h-304z" />
    <glyph glyph-name="U" unicode="U" horiz-adv-x="1200" 
d="M160 416v912h144v-896q0 -121 45 -213t120 -139.5t155 -47.5q336 0 336 352v944h96v-944q0 -100 -35 -196.5t-131.5 -166t-265.5 -69.5q-129 0 -235.5 53.5t-167.5 159t-61 251.5z" />
    <glyph glyph-name="V" unicode="V" 
d="M32 1328h160l432 -1056l448 1056h96l-576 -1376z" />
    <glyph glyph-name="W" unicode="W" horiz-adv-x="1616" 
d="M16 1328h160l400 -1040l192 496l-208 544h144l400 -1056l416 1056h96l-544 -1376l-256 704l-288 -704z" />
    <glyph glyph-name="X" unicode="X" 
d="M16 1328h176l400 -560l416 560h112l-464 -640l464 -688h-176l-384 560l-416 -560h-112l480 640z" />
    <glyph glyph-name="Y" unicode="Y" horiz-adv-x="1056" 
d="M0 1328h176l400 -576l416 576h96l-464 -656v-672h-144v640z" />
    <glyph glyph-name="Z" unicode="Z" horiz-adv-x="1088" 
d="M16 0l864 1248h-784v80h1008l-864 -1248h816v-80h-1040z" />
    <glyph glyph-name="bracketleft" unicode="[" horiz-adv-x="560" 
d="M128 -384v1712h384v-80h-272v-1552h272v-80h-384z" />
    <glyph glyph-name="backslash" unicode="\" horiz-adv-x="560" 
d="M-160 1360h112l768 -1392h-112z" />
    <glyph glyph-name="bracketright" unicode="]" horiz-adv-x="560" 
d="M64 -304h272v1552h-272v80h384v-1712h-384v80z" />
    <glyph glyph-name="asciicircum" unicode="^" horiz-adv-x="1216" 
d="M80 400l464 912h128l464 -912h-128l-400 784l-400 -784h-128z" />
    <glyph glyph-name="underscore" unicode="_" horiz-adv-x="1024" 
d="M0 -128h1008v-128h-1008v128z" />
    <glyph glyph-name="grave" unicode="`" horiz-adv-x="416" 
d="M-32 1280h144l208 -288h-96z" />
    <glyph glyph-name="a" unicode="a" horiz-adv-x="784" 
d="M32 0l224 800q12 48 43 75t67 27t67 -26t47 -76l288 -800h-144l-80 240h-368l-80 -240h-64zM192 304h320l-128 384q-21 74 -44 74q-22 0 -36 -58z" />
    <glyph glyph-name="b" unicode="b" horiz-adv-x="944" 
d="M128 0v1456h144v-576h112q122 0 217.5 -36.5t162.5 -103.5t99.5 -149.5t32.5 -174.5q0 -99 -44 -194t-140.5 -158.5t-247.5 -63.5h-336zM272 64h176q65 0 121 25.5t97.5 73t63.5 112t22 141.5q0 129 -52 219t-133.5 135.5t-166.5 45.5h-128v-752z" />
    <glyph glyph-name="c" unicode="c" horiz-adv-x="832" 
d="M80 432q0 111 37 220t130.5 184.5t248.5 75.5q82 0 163 -43.5t125 -132.5l-48 -48q-45 90 -103 125t-137 35q-272 0 -272 -416q0 -134 34 -223t95 -133t143 -44q94 0 160.5 37.5t111.5 138.5l32 -32q-24 -63 -71.5 -110.5t-108.5 -72.5t-124 -25q-104 0 -183 39
t-131 106.5t-77 149t-25 169.5z" />
    <glyph glyph-name="d" unicode="d" horiz-adv-x="944" 
d="M48 448q0 132 62 230t172.5 150t245.5 52h144v592h144v-1472h-272q-83 0 -169.5 26.5t-160 80.5t-120 140.5t-46.5 200.5zM192 448q0 -93 55 -182.5t140.5 -145.5t172.5 -56h112v752h-128q-119 0 -197.5 -41.5t-116.5 -123t-38 -203.5z" />
    <glyph glyph-name="e" unicode="e" horiz-adv-x="720" 
d="M112 128v640q0 61 28.5 86.5t99.5 25.5h432v-64h-352q-37 0 -50.5 -16.5t-13.5 -63.5v-256h336v-64h-336v-272q0 -47 13.5 -63.5t50.5 -16.5h336v-64h-416q-72 0 -100 28t-28 100z" />
    <glyph glyph-name="f" unicode="f" horiz-adv-x="496" 
d="M144 0v1232q0 106 53 167t156 61q60 0 127 -20l16 -64q-55 28 -99 28q-53 0 -81 -40t-28 -116v-368h160v-64h-160v-816h-144z" />
    <glyph glyph-name="g" unicode="g" horiz-adv-x="896" 
d="M80 448q0 142 52.5 246.5t144 161t203.5 56.5q178 0 304 -176l-48 -64q-28 60 -67.5 100.5t-86 61t-93.5 20.5q-73 0 -137.5 -47t-104 -138.5t-39.5 -220.5q0 -126 38 -223t104 -151t147 -54q96 0 191 76v320h144v-816h-144v400q0 9 -8 9q-2 0 -66.5 -20.5t-133.5 -20.5
q-79 0 -151.5 30.5t-127.5 90.5t-88 151.5t-33 207.5z" />
    <glyph glyph-name="h" unicode="h" horiz-adv-x="944" 
d="M112 0v1440h144v-960h432v400h144v-880h-144v416h-432v-416h-144z" />
    <glyph glyph-name="i" unicode="i" horiz-adv-x="416" 
d="M128 1136q0 40 23.5 62t56.5 22q32 0 56 -22t24 -62t-23.5 -62t-56.5 -22q-32 0 -56 22t-24 62zM144 0v880h144v-880h-144z" />
    <glyph glyph-name="j" unicode="j" horiz-adv-x="448" 
d="M-48 -304q43 -18 81 -18q127 0 127 210v992h144v-992q0 -148 -74 -213.5t-174 -65.5q-66 0 -104 23v64zM144 1136q0 40 23.5 62t56.5 22q32 0 56 -22t24 -62t-23.5 -62t-56.5 -22q-32 0 -56 22t-24 62z" />
    <glyph glyph-name="k" unicode="k" horiz-adv-x="784" 
d="M144 0v1456h144v-1456h-144zM304 448l336 432h96l-304 -384l368 -496h-160z" />
    <glyph glyph-name="l" unicode="l" horiz-adv-x="448" 
d="M128 160v1296h144v-1312q0 -32 4 -51t21.5 -32t54.5 -13h80v-48h-160q-67 0 -96 10.5t-38.5 42.5t-9.5 107z" />
    <glyph glyph-name="m" unicode="m" 
d="M128 0v736q0 74 24.5 109t61.5 35q36 0 70 -27t52 -69l240 -560l192 560q16 46 48.5 69.5t71.5 23.5q31 0 59 -15t44.5 -44.5t16.5 -65.5v-752h-144v688q0 60 -20 60t-44 -60l-272 -720l-256 688q-31 90 -50 90q-14 0 -14 -58v-688h-80z" />
    <glyph glyph-name="n" unicode="n" horiz-adv-x="896" 
d="M112 0v768q0 51 30 81t76 30q87 0 150 -95l336 -544v640h64v-848q0 -53 -25 -53q-30 0 -71 69l-400 640q-38 77 -71 77q-25 0 -25 -45v-720h-64z" />
    <glyph glyph-name="o" unicode="o" horiz-adv-x="944" 
d="M48 448q0 211 115.5 329.5t300.5 118.5q118 0 216 -47t157 -148.5t59 -252.5q0 -149 -51.5 -258.5t-148.5 -165.5t-232 -56q-182 0 -299 133t-117 347zM176 448q0 -133 38 -226.5t103.5 -141.5t146.5 -48q85 0 144.5 39.5t95.5 105t50 134.5t14 137q0 99 -34 187.5
t-102.5 142.5t-167.5 54q-90 0 -156 -57.5t-99 -147t-33 -179.5z" />
    <glyph glyph-name="p" unicode="p" horiz-adv-x="944" 
d="M128 -400v1280h240q136 0 252.5 -47t188 -148.5t71.5 -252.5q0 -139 -50 -228t-120 -131.5t-139.5 -57.5t-122.5 -15h-192v-400h-128zM256 64h192q119 0 211.5 86.5t92.5 281.5q0 95 -41 182.5t-128 144.5t-215 57h-112v-752z" />
    <glyph glyph-name="q" unicode="q" horiz-adv-x="944" 
d="M47 462q0 135 60.5 234t156 149.5t200.5 50.5t202 -54t155.5 -160t58.5 -250q0 -214 -90.5 -319.5t-261.5 -144.5v-240h-128v240q-98 27 -173 79t-123.5 147.5t-55.5 237.5q-1 10 -1 30zM176 432q0 -78 24 -161.5t74.5 -149.5t125.5 -89v176h128v-176q123 34 173.5 137.5
t50.5 262.5q0 168 -67 284t-221 116q-103 0 -168 -66t-92.5 -157.5t-27.5 -176.5z" />
    <glyph glyph-name="r" unicode="r" horiz-adv-x="784" 
d="M128 0v880h272q111 0 215.5 -47.5t104.5 -192.5q0 -68 -35 -115.5t-90.5 -74t-114.5 -34.5l272 -416h-144l-304 464q38 -2 53 -2q142 0 188.5 48t46.5 130q0 77 -52.5 126.5t-155.5 49.5h-128v-816h-128z" />
    <glyph glyph-name="s" unicode="s" horiz-adv-x="640" 
d="M48 624q0 131 103 193.5t233 62.5h144v-64h-128q-109 0 -167 -41t-58 -100q0 -50 42.5 -95.5t118.5 -67.5q134 -40 203 -97.5t69 -158.5q0 -117 -57.5 -186.5t-182.5 -69.5h-288v64h240q73 0 123 47t50 107q0 50 -38.5 90t-118.5 60q-138 42 -213 99.5t-75 156.5z" />
    <glyph glyph-name="t" unicode="t" horiz-adv-x="640" 
d="M48 816v64h576v-64h-224v-816h-128v816h-224z" />
    <glyph glyph-name="u" unicode="u" horiz-adv-x="864" 
d="M128 256v624h128v-592q0 -100 55.5 -178t136.5 -78q114 0 169 61t55 163v624h64v-640q0 -74 -32.5 -140t-98.5 -107t-157 -41q-82 0 -155.5 36.5t-119 106.5t-45.5 161z" />
    <glyph glyph-name="v" unicode="v" horiz-adv-x="784" 
d="M0 880h144l240 -640q24 -72 40 -72t40 72l256 640h64l-336 -864q-6 -23 -22 -37.5t-36 -14.5q-47 0 -70 68z" />
    <glyph glyph-name="w" unicode="w" horiz-adv-x="1168" 
d="M0 880h144l272 -720l128 336l-144 384h144l272 -720l288 720h64l-320 -832q-24 -72 -64 -72t-64 72l-144 336l-128 -336q-24 -72 -72 -72t-72 72z" />
    <glyph glyph-name="x" unicode="x" horiz-adv-x="832" 
d="M32 0l320 416l-320 464h144l256 -352l288 352h80l-320 -416l320 -464h-144l-256 368l-288 -368h-80z" />
    <glyph glyph-name="y" unicode="y" horiz-adv-x="784" 
d="M0 880h144l272 -672l288 672h80l-528 -1264h-80l176 432z" />
    <glyph glyph-name="z" unicode="z" horiz-adv-x="672" 
d="M48 0l384 816h-368v64h400q106 0 106 -50q0 -28 -26 -78l-320 -688h416v-64h-592z" />
    <glyph glyph-name="braceleft" unicode="{" horiz-adv-x="672" 
d="M112 448v64q70 0 107 64.5t37 175.5v368q0 113 49 168.5t127 55.5h96v-80h-80q-35 0 -57.5 -41.5t-22.5 -102.5v-368q0 -64 -20.5 -121t-50 -94.5t-57.5 -56.5q28 -19 57.5 -56.5t50 -94.5t20.5 -121v-368q0 -61 22.5 -102.5t57.5 -41.5h80v-80h-96q-78 0 -127 55
t-49 169v368q0 216 -144 240z" />
    <glyph glyph-name="bar" unicode="|" horiz-adv-x="448" 
d="M176 0v1456h96v-1456h-96z" />
    <glyph glyph-name="braceright" unicode="}" horiz-adv-x="672" 
d="M144 -320h80q80 0 80 144v368q0 63 15 116.5t43.5 92.5t69.5 63q-61 36 -94.5 106.5t-33.5 165.5v368q0 144 -80 144h-80v80h96q66 0 105.5 -33t55 -85t15.5 -106v-368q0 -115 40.5 -177.5t103.5 -62.5v-64q-63 0 -103.5 -62.5t-40.5 -177.5v-368q0 -54 -15.5 -106
t-55 -85t-105.5 -33h-96v80z" />
    <glyph glyph-name="asciitilde" unicode="~" horiz-adv-x="1216" 
d="M128 400q136 160 299 160q89 0 197 -48q76 -38 114.5 -53t73.5 -15q47 0 93.5 33.5t102.5 114.5l80 -80q-104 -185 -264 -185q-88 0 -200 57q-124 62 -206 62q-35 0 -64.5 -10.5t-51.5 -27t-50 -44.5l-44 -44z" />
    <glyph glyph-name="uni00A0" unicode="&#xa0;" horiz-adv-x="559" 
 />
    <glyph glyph-name="exclamdown" unicode="&#xa1;" horiz-adv-x="560" 
d="M192 -288l64 1056h32l64 -1056q0 -51 -23.5 -79.5t-56.5 -28.5q-32 0 -56 28.5t-24 79.5zM192 912q0 40 23.5 62t56.5 22q32 0 56 -22t24 -62t-23.5 -62t-56.5 -22q-32 0 -56 22t-24 62z" />
    <glyph glyph-name="cent" unicode="&#xa2;" 
d="M159 402q0 20 1 30q0 119 45.5 225.5t139.5 177t231 77.5l32 192h80l-32 -208q155 -44 208 -176l-48 -48q-16 46 -47.5 82.5t-67.5 57t-61 20.5l-112 -800q35 -11 71 -11q71 0 138 41.5t111 129.5l48 -16q-47 -113 -136 -162.5t-191 -49.5q-21 0 -57 4l-48 -288h-80
l48 320q-43 13 -89 45.5t-89.5 87t-69 124t-25.5 145.5zM298 420q0 -137 46.5 -225.5t103.5 -130.5l112 784q-114 -11 -178.5 -103t-77.5 -233q-6 -49 -6 -92z" />
    <glyph glyph-name="sterling" unicode="&#xa3;" 
d="M160 0l160 608h-160v64h176l96 368q40 148 115.5 226t220.5 78q75 0 132 -29t88 -90t31 -158q0 -61 -11 -123h-80q11 64 11 110q0 84 -26 134.5t-61.5 71t-67.5 20.5q-63 0 -127.5 -61t-96.5 -211l-80 -336h128v-64h-144l-144 -544h704l-16 -64h-848z" />
    <glyph glyph-name="currency" unicode="&#xa4;" 
d="M52 651q0 186 108 325l-96 96l80 80l96 -96q71 53 153 80.5t167 27.5t167 -27.5t153 -80.5l96 96l80 -80l-96 -96q116 -128 116 -315q0 -169 -100 -325l96 -96l-96 -80l-96 96q-126 -114 -315 -114q-90 0 -173 30.5t-136 83.5l-96 -96l-96 80l96 96q-52 58 -80 140
t-28 175zM176 672q0 -74 24.5 -147.5t73.5 -134.5t121.5 -97.5t164.5 -36.5q188 0 294 115.5t106 300.5q0 133 -60 220t-152.5 125.5t-187.5 38.5q-98 0 -186.5 -44t-143 -131t-54.5 -209z" />
    <glyph glyph-name="yen" unicode="&#xa5;" 
d="M16 1328h176l432 -576l416 576h80l-352 -496h208v-64h-240l-80 -96v-48h256v-64h-256v-560h-128v560h-256v64h256v32l-80 112h-240v64h192z" />
    <glyph glyph-name="brokenbar" unicode="&#xa6;" horiz-adv-x="272" 
d="M176 0v1456h96v-1456h-96z" />
    <glyph glyph-name="section" unicode="&#xa7;" horiz-adv-x="896" 
d="M52 629q0 58 26 111t75.5 85.5t112.5 32.5q34 0 70 -10q-162 133 -162 286q0 62 31 114t90.5 82t136.5 30q106 0 172 -46.5t132 -129.5l-64 -48q-45 68 -108.5 106t-115.5 38q-59 0 -101.5 -33t-42.5 -92q0 -99 128 -227q30 -30 114.5 -105t139.5 -134t98 -129
q46 -81 46 -154q0 -99 -77 -157t-169 -58q-16 0 -24 1q80 -66 118 -138t38 -140q0 -65 -33.5 -119t-93.5 -84.5t-141 -30.5q-102 0 -175.5 49t-112.5 127l48 48q55 -77 119 -110.5t121 -33.5q68 8 108 39.5t40 84.5q0 96 -132 228q-38 38 -85.5 82.5t-97 91.5t-95.5 98
t-90 112q-44 56 -44 133zM178 665q0 -64 62 -137q31 -36 68.5 -79.5t56 -63.5t44 -41.5t55.5 -39.5q52 -35 113 -35q57 0 97 32t40 85t-42 110q-58 73 -116.5 137.5t-91.5 86.5q-67 61 -150 61q-57 0 -96.5 -31.5t-39.5 -84.5z" />
    <glyph glyph-name="dieresis" unicode="&#xa8;" horiz-adv-x="416" 
d="M-16 1104q0 40 21 62t51 22q29 0 50.5 -22.5t21.5 -61.5t-21.5 -61.5t-50.5 -22.5t-50.5 22t-21.5 62zM272 1104q0 40 21 62t51 22q29 0 50.5 -22.5t21.5 -61.5t-21.5 -61.5t-50.5 -22.5t-50.5 22t-21.5 62z" />
    <glyph glyph-name="copyright" unicode="&#xa9;" horiz-adv-x="1632" 
d="M112 640q0 185 75.5 345.5t234 259.5t394.5 99q111 0 231 -37t230 -122.5t176.5 -221.5t66.5 -323q0 -146 -56.5 -272.5t-155.5 -219.5t-227 -144.5t-265 -51.5q-131 0 -258.5 51.5t-228 144.5t-159 219.5t-58.5 272.5zM223 668q0 -7 0.5 -13t0.5 -15q0 -151 78.5 -288.5
t215.5 -220.5t298 -83q146 0 283.5 73t223 209t85.5 310q0 183 -82.5 322t-219.5 212.5t-290 73.5q-107 0 -212 -38.5t-192 -115t-138 -186.5t-51 -240zM416 640q0 112 28.5 199t83.5 147t131 89t173 29q77 0 141 -21.5t113 -64.5t73.5 -98t24.5 -120h-112q0 61 -35.5 104.5
t-91 65.5t-113.5 22q-130 0 -217 -78t-87 -274q0 -86 39 -160t109 -117t156 -43q216 0 240 192h112q0 -61 -37 -132.5t-116.5 -121.5t-198.5 -50q-122 0 -217.5 60t-147 160t-51.5 212z" />
    <glyph glyph-name="ordfeminine" unicode="&#xaa;" horiz-adv-x="480" 
d="M-16 800l144 480q12 41 35.5 62.5t52.5 21.5q28 0 52.5 -22t35.5 -62l176 -480h-112l-48 160h-224l-48 -160h-64zM112 1024h176l-64 176q-15 60 -29 60q-10 0 -19 -28z" />
    <glyph glyph-name="guillemotleft" unicode="&#xab;" horiz-adv-x="1024" 
d="M175 384v96l304 240v-128l-224 -160l224 -160v-128zM544 384v96l304 240v-128l-224 -160l224 -160v-128z" />
    <glyph glyph-name="logicalnot" unicode="&#xac;" horiz-adv-x="1216" 
d="M160 560v96h896v-464h-96v368h-800z" />
    <glyph glyph-name="uni00AD" unicode="&#xad;" horiz-adv-x="672" 
d="M128 272v112l448 224v-112z" />
    <glyph glyph-name="registered" unicode="&#xae;" horiz-adv-x="1632" 
d="M112 640q0 125 42.5 250.5t128 227.5t220.5 164t313 62q111 0 231 -37t230 -122.5t176.5 -221.5t66.5 -323q0 -146 -56.5 -272.5t-155.5 -219.5t-227 -144.5t-265 -51.5q-131 0 -258.5 51.5t-228 144.5t-159 219.5t-58.5 272.5zM223 668q0 -7 0.5 -13t0.5 -15
q0 -151 78.5 -288.5t215.5 -220.5t298 -83q146 0 283.5 73t223 209t85.5 310q0 183 -82.5 322t-219.5 212.5t-290 73.5q-107 0 -212 -38.5t-192 -115t-138 -186.5t-51 -240zM544 240v832h336q120 0 196 -61t76 -195q0 -92 -59.5 -151.5t-148.5 -72.5l240 -352h-128l-240 352
h-160v-352h-112zM656 688h208q84 0 129 41.5t45 98.5q0 60 -46.5 104t-127.5 44h-208v-288z" />
    <glyph glyph-name="plusminus" unicode="&#xb1;" horiz-adv-x="1217" 
 />
    <glyph glyph-name="uni00B2" unicode="&#xb2;" horiz-adv-x="672" 
 />
    <glyph glyph-name="uni00B3" unicode="&#xb3;" horiz-adv-x="672" 
 />
    <glyph glyph-name="acute" unicode="&#xb4;" horiz-adv-x="416" 
d="M112 992l192 272h144l-256 -272h-80z" />
    <glyph glyph-name="mu" unicode="&#xb5;" horiz-adv-x="864" 
 />
    <glyph glyph-name="paragraph" unicode="&#xb6;" horiz-adv-x="1216" 
d="M128 928q0 113 42 189.5t108.5 119t139 59t142.5 16.5h480v-1728h-112v1632h-256v-1632h-112v944q-94 0 -193.5 36.5t-169 126t-69.5 237.5z" />
    <glyph glyph-name="periodcentered" unicode="&#xb7;" horiz-adv-x="560" 
d="M176 640q0 182 91 267t245 85q99 0 174.5 -38.5t118.5 -118.5t43 -195q0 -152 -93.5 -236t-242.5 -84q-97 0 -173 37t-119.5 109.5t-43.5 173.5z" />
    <glyph glyph-name="cedilla" unicode="&#xb8;" horiz-adv-x="416" 
d="M-16 -368l16 64q111 -50 195 -50q59 0 92 25t33 73q0 35 -29 56t-81 21q-39 0 -82 -13l48 176h64l-32 -96h32q65 0 112.5 -38t47.5 -106q0 -75 -52 -114.5t-141 -39.5q-97 0 -223 42z" />
    <glyph glyph-name="uni00B9" unicode="&#xb9;" horiz-adv-x="672" 
 />
    <glyph glyph-name="ordmasculine" unicode="&#xba;" horiz-adv-x="560" 
d="M-32 1040q0 160 76 248t228 88q99 0 168 -46t102.5 -123.5t33.5 -166.5q0 -154 -85 -245t-219 -91q-97 0 -165 37.5t-103.5 112.5t-35.5 186zM80 1040q0 -138 51.5 -205t140.5 -67t140.5 67t51.5 205q0 124 -49.5 198t-142.5 74q-192 0 -192 -272z" />
    <glyph glyph-name="guillemotright" unicode="&#xbb;" horiz-adv-x="1025" 
d="M176 144v128l224 160l-224 160v128l304 -224v-112zM545 144v128l224 160l-224 160v128l304 -224v-112z" />
    <glyph glyph-name="onequarter" unicode="&#xbc;" horiz-adv-x="1696" 
 />
    <glyph glyph-name="onehalf" unicode="&#xbd;" horiz-adv-x="1696" 
 />
    <glyph glyph-name="threequarters" unicode="&#xbe;" horiz-adv-x="1696" 
 />
    <glyph glyph-name="questiondown" unicode="&#xbf;" horiz-adv-x="784" 
d="M32 -96q0 136 48.5 212.5t122 119t133 78.5t64.5 86l48 368h16l48 -464q0 -56 -32.5 -78t-128.5 -67t-143.5 -99.5t-47.5 -155.5q0 -108 66 -174t174 -66q208 0 208 224h80q1 -9 1 -26q0 -89 -44.5 -148t-111 -86.5t-133.5 -27.5q-92 0 -176 37t-138 106t-54 161z
M384 896q0 40 23.5 62t56.5 22q32 0 56 -22t24 -62t-23.5 -62t-56.5 -22q-32 0 -56 22t-24 62z" />
    <glyph glyph-name="Agrave" unicode="&#xc0;" 
d="M16 0l544 1360l560 -1360h-160l-160 400h-528l-160 -400h-96zM287 1696h144l208 -288h-96zM304 480h464l-224 592z" />
    <glyph glyph-name="Aacute" unicode="&#xc1;" 
d="M16 0l544 1360l560 -1360h-160l-160 400h-528l-160 -400h-96zM304 480h464l-224 592zM481 1408l192 272h144l-256 -272h-80z" />
    <glyph glyph-name="Acircumflex" unicode="&#xc2;" 
d="M16 0l544 1360l560 -1360h-160l-160 400h-528l-160 -400h-96zM272 1391l224 272h128l224 -272h-112l-176 192l-176 -192h-112zM304 480h464l-224 592z" />
    <glyph glyph-name="Atilde" unicode="&#xc3;" 
d="M16 0l544 1360l560 -1360h-160l-160 400h-528l-160 -400h-96zM288 1472q20 153 133 153q37 0 120 -21.5t112 -21.5q77 0 99 82h64q-15 -161 -145 -161q-41 0 -121 18.5t-116 18.5q-72 0 -82 -68h-64zM304 480h464l-224 592z" />
    <glyph glyph-name="Adieresis" unicode="&#xc4;" 
d="M16 0l544 1360l560 -1360h-160l-160 400h-528l-160 -400h-96zM304 480h464l-224 592zM353 1520q0 40 21 62t51 22q29 0 50.5 -22.5t21.5 -61.5t-21.5 -61.5t-50.5 -22.5t-50.5 22t-21.5 62zM641 1520q0 40 21 62t51 22q29 0 50.5 -22.5t21.5 -61.5t-21.5 -61.5
t-50.5 -22.5t-50.5 22t-21.5 62z" />
    <glyph glyph-name="Aring" unicode="&#xc5;" 
d="M16 0l544 1360l560 -1360h-160l-160 400h-528l-160 -400h-96zM304 480h464l-224 592zM353 1632q0 96 61.5 150t146.5 54q84 0 146 -54t62 -150q0 -102 -61.5 -159t-146.5 -57q-84 0 -146 57t-62 159zM417 1632q0 -74 42.5 -115t101.5 -41q58 0 101 41t43 115
q0 68 -42.5 106t-101.5 38q-58 0 -101 -38t-43 -106z" />
    <glyph glyph-name="AE" unicode="&#xc6;" horiz-adv-x="1696" 
d="M-16 0l816 1312h800v-80h-608v-528h576v-80h-576v-544h640v-80h-784v400h-512l-256 -400h-96zM384 480h464v752z" />
    <glyph glyph-name="Ccedilla" unicode="&#xc7;" horiz-adv-x="1280" 
d="M96 656q0 164 49 298t137.5 228.5t205 144t248.5 49.5q94 0 171 -21.5t139 -63t104 -97t66 -122.5l-80 -48q-84 272 -400 272q-145 0 -249.5 -71t-159.5 -213.5t-55 -355.5q0 -151 41.5 -265.5t112 -191.5t154.5 -114t172 -37q71 0 150.5 23.5t150 85t99.5 163.5l80 -80
q-58 -139 -185.5 -213.5t-278.5 -74.5l-16 -80q15 3 32 3q67 0 121.5 -38.5t54.5 -108.5t-61 -104t-150 -34q-140 0 -221 58l16 64q41 -29 97 -46.5t105 -17.5q53 0 85.5 20t32.5 60q0 86 -122 86q-32 0 -70 -6l32 144q-140 6 -254 63.5t-193 155t-120 222.5t-41 263z" />
    <glyph glyph-name="Egrave" unicode="&#xc8;" horiz-adv-x="1024" 
d="M176 0v1312h752v-80h-608v-528h576v-80h-576v-544h640v-80h-784zM304 1679h144l208 -288h-96z" />
    <glyph glyph-name="Eacute" unicode="&#xc9;" horiz-adv-x="1024" 
d="M176 0v1312h752v-80h-608v-528h576v-80h-576v-544h640v-80h-784zM431 1391l192 272h144l-256 -272h-80z" />
    <glyph glyph-name="Ecircumflex" unicode="&#xca;" horiz-adv-x="1024" 
d="M176 0v1312h752v-80h-608v-528h576v-80h-576v-544h640v-80h-784zM256 1391l224 272h128l224 -272h-112l-176 192l-176 -192h-112z" />
    <glyph glyph-name="Edieresis" unicode="&#xcb;" horiz-adv-x="1024" 
d="M176 0v1312h752v-80h-608v-528h576v-80h-576v-544h640v-80h-784zM336 1503q0 40 21 62t51 22q29 0 50.5 -22.5t21.5 -61.5t-21.5 -61.5t-50.5 -22.5t-50.5 22t-21.5 62zM624 1503q0 40 21 62t51 22q29 0 50.5 -22.5t21.5 -61.5t-21.5 -61.5t-50.5 -22.5t-50.5 22
t-21.5 62z" />
    <glyph glyph-name="Igrave" unicode="&#xcc;" horiz-adv-x="496" 
d="M1 1679h144l208 -288h-96zM176 0v1312h144v-1312h-144z" />
    <glyph glyph-name="Iacute" unicode="&#xcd;" horiz-adv-x="496" 
d="M128 1408l192 272h144l-256 -272h-80zM176 0v1312h144v-1312h-144z" />
    <glyph glyph-name="Icircumflex" unicode="&#xce;" horiz-adv-x="496" 
d="M-33 1391l224 272h128l224 -272h-112l-176 192l-176 -192h-112zM176 0v1312h144v-1312h-144z" />
    <glyph glyph-name="Idieresis" unicode="&#xcf;" horiz-adv-x="496" 
d="M31 1520q0 40 21 62t51 22q29 0 50.5 -22.5t21.5 -61.5t-21.5 -61.5t-50.5 -22.5t-50.5 22t-21.5 62zM176 0v1312h144v-1312h-144zM319 1520q0 40 21 62t51 22q29 0 50.5 -22.5t21.5 -61.5t-21.5 -61.5t-50.5 -22.5t-50.5 22t-21.5 62z" />
    <glyph glyph-name="Eth" unicode="&#xd0;" horiz-adv-x="1313" 
 />
    <glyph glyph-name="Ntilde" unicode="&#xd1;" horiz-adv-x="1312" 
d="M160 0v1328h128l768 -1008v1008h96v-1376l-896 1136v-1088h-96zM401 1392q20 153 133 153q37 0 120 -21.5t112 -21.5q77 0 99 82h64q-15 -161 -145 -161q-41 0 -121 18.5t-116 18.5q-72 0 -82 -68h-64z" />
    <glyph glyph-name="Ograve" unicode="&#xd2;" horiz-adv-x="1424" 
d="M80 656q0 175 72.5 337.5t218.5 264.5t349 102q116 0 226.5 -44.5t202.5 -136.5t143.5 -223.5t51.5 -299.5q0 -213 -93 -369.5t-236.5 -237.5t-294.5 -81q-136 0 -253.5 52.5t-203.5 146.5t-134.5 220.5t-48.5 268.5zM240 656q0 -120 50.5 -262.5t159 -244t270.5 -101.5
q115 0 203.5 54.5t145.5 143t86 197t29 213.5q0 93 -24.5 199.5t-79.5 203.5t-145.5 159t-214.5 62q-120 0 -212 -56t-151 -148.5t-88 -202.5t-29 -217zM464 1679h144l208 -288h-96z" />
    <glyph glyph-name="Oacute" unicode="&#xd3;" horiz-adv-x="1424" 
d="M80 656q0 175 72.5 337.5t218.5 264.5t349 102q116 0 226.5 -44.5t202.5 -136.5t143.5 -223.5t51.5 -299.5q0 -213 -93 -369.5t-236.5 -237.5t-294.5 -81q-136 0 -253.5 52.5t-203.5 146.5t-134.5 220.5t-48.5 268.5zM240 656q0 -120 50.5 -262.5t159 -244t270.5 -101.5
q115 0 203.5 54.5t145.5 143t86 197t29 213.5q0 93 -24.5 199.5t-79.5 203.5t-145.5 159t-214.5 62q-120 0 -212 -56t-151 -148.5t-88 -202.5t-29 -217zM577 1408l192 272h144l-256 -272h-80z" />
    <glyph glyph-name="Ocircumflex" unicode="&#xd4;" horiz-adv-x="1424" 
d="M80 656q0 175 72.5 337.5t218.5 264.5t349 102q116 0 226.5 -44.5t202.5 -136.5t143.5 -223.5t51.5 -299.5q0 -213 -93 -369.5t-236.5 -237.5t-294.5 -81q-136 0 -253.5 52.5t-203.5 146.5t-134.5 220.5t-48.5 268.5zM240 656q0 -120 50.5 -262.5t159 -244t270.5 -101.5
q115 0 203.5 54.5t145.5 143t86 197t29 213.5q0 93 -24.5 199.5t-79.5 203.5t-145.5 159t-214.5 62q-120 0 -212 -56t-151 -148.5t-88 -202.5t-29 -217zM432 1391l224 272h128l224 -272h-112l-176 192l-176 -192h-112z" />
    <glyph glyph-name="Otilde" unicode="&#xd5;" horiz-adv-x="1423" 
d="M80 656q0 175 72.5 337.5t218.5 264.5t349 102q116 0 226.5 -44.5t202.5 -136.5t143.5 -223.5t51.5 -299.5q0 -213 -93 -369.5t-236.5 -237.5t-294.5 -81q-136 0 -253.5 52.5t-203.5 146.5t-134.5 220.5t-48.5 268.5zM240 656q0 -120 50.5 -262.5t159 -244t270.5 -101.5
q115 0 203.5 54.5t145.5 143t86 197t29 213.5q0 93 -24.5 199.5t-79.5 203.5t-145.5 159t-214.5 62q-120 0 -212 -56t-151 -148.5t-88 -202.5t-29 -217zM577 1408l192 272h144l-256 -272h-80zM827 1408l192 272h144l-256 -272h-80z" />
    <glyph glyph-name="Odieresis" unicode="&#xd6;" horiz-adv-x="1424" 
d="M80 656q0 175 72.5 337.5t218.5 264.5t349 102q116 0 226.5 -44.5t202.5 -136.5t143.5 -223.5t51.5 -299.5q0 -213 -93 -369.5t-236.5 -237.5t-294.5 -81q-136 0 -253.5 52.5t-203.5 146.5t-134.5 220.5t-48.5 268.5zM240 656q0 -120 50.5 -262.5t159 -244t270.5 -101.5
q115 0 203.5 54.5t145.5 143t86 197t29 213.5q0 93 -24.5 199.5t-79.5 203.5t-145.5 159t-214.5 62q-120 0 -212 -56t-151 -148.5t-88 -202.5t-29 -217zM496 1503q0 40 21 62t51 22q29 0 50.5 -22.5t21.5 -61.5t-21.5 -61.5t-50.5 -22.5t-50.5 22t-21.5 62zM784 1503
q0 40 21 62t51 22q29 0 50.5 -22.5t21.5 -61.5t-21.5 -61.5t-50.5 -22.5t-50.5 22t-21.5 62z" />
    <glyph glyph-name="Oslash" unicode="&#xd8;" horiz-adv-x="1424" 
d="M80 672q0 152 50 280t138 222t202 144.5t237 50.5q97 0 196 -35t185 -102l144 192h112l-176 -256q51 -62 88 -131.5t61 -142.5t33.5 -134.5t9.5 -119.5q0 -138 -51.5 -262.5t-141 -216.5t-204.5 -143t-242 -51q-186 0 -353 113l-144 -192h-112l176 256q-208 208 -208 528
zM240 672q0 -86 18.5 -173.5t48.5 -157.5t61 -101l656 896q-159 146 -327 146q-124 0 -230 -81.5t-166.5 -221t-60.5 -307.5zM416 160q133 -127 295 -127q122 0 232 77t175.5 216.5t65.5 313.5q0 63 -7.5 125t-22.5 124.5t-31.5 102.5t-34.5 64z" />
    <glyph glyph-name="Ugrave" unicode="&#xd9;" horiz-adv-x="1200" 
d="M160 416v912h144v-896q0 -121 45 -213t120 -139.5t155 -47.5q336 0 336 352v944h96v-944q0 -100 -35 -196.5t-131.5 -166t-265.5 -69.5q-129 0 -235.5 53.5t-167.5 159t-61 251.5zM384 1679h144l208 -288h-96z" />
    <glyph glyph-name="Uacute" unicode="&#xda;" horiz-adv-x="1200" 
d="M160 416v912h144v-896q0 -121 45 -213t120 -139.5t155 -47.5q336 0 336 352v944h96v-944q0 -100 -35 -196.5t-131.5 -166t-265.5 -69.5q-129 0 -235.5 53.5t-167.5 159t-61 251.5zM448 1377l192 272h144l-256 -272h-80z" />
    <glyph glyph-name="Ucircumflex" unicode="&#xdb;" horiz-adv-x="1200" 
d="M160 416v912h144v-896q0 -121 45 -213t120 -139.5t155 -47.5q336 0 336 352v944h96v-944q0 -100 -35 -196.5t-131.5 -166t-265.5 -69.5q-129 0 -235.5 53.5t-167.5 159t-61 251.5zM448 1377l192 272h144l-256 -272h-80zM708 1377l192 272h144l-256 -272h-80z" />
    <glyph glyph-name="Udieresis" unicode="&#xdc;" horiz-adv-x="1200" 
d="M160 416v912h144v-896q0 -121 45 -213t120 -139.5t155 -47.5q336 0 336 352v944h96v-944q0 -100 -35 -196.5t-131.5 -166t-265.5 -69.5q-129 0 -235.5 53.5t-167.5 159t-61 251.5zM383 1503q0 40 21 62t51 22q29 0 50.5 -22.5t21.5 -61.5t-21.5 -61.5t-50.5 -22.5
t-50.5 22t-21.5 62zM671 1503q0 40 21 62t51 22q29 0 50.5 -22.5t21.5 -61.5t-21.5 -61.5t-50.5 -22.5t-50.5 22t-21.5 62z" />
    <glyph glyph-name="Yacute" unicode="&#xdd;" horiz-adv-x="1057" 
 />
    <glyph glyph-name="Thorn" unicode="&#xde;" horiz-adv-x="1057" 
 />
    <glyph glyph-name="germandbls" unicode="&#xdf;" horiz-adv-x="944" 
d="M112 0v1168q0 139 69 213.5t267 74.5q67 0 126.5 -17t108.5 -53.5t75 -87t26 -114.5q0 -76 -45 -138t-131 -134q-24 -22 -48.5 -48t-24.5 -46q0 -33 57 -66q86 -55 133.5 -89.5t88 -82.5t61.5 -110.5t21 -149.5q0 -129 -62.5 -208t-159 -112.5t-202.5 -33.5
q-82 0 -152 18v64q63 -14 123 -14q97 0 168 38.5t106 99.5t35 132q0 89 -27.5 162.5t-78.5 134.5t-118 119q-48 36 -48 90t48 102q145 145 145 276q0 92 -66 148t-159 56q-115 0 -153.5 -58t-38.5 -198v-1136h-144z" />
    <glyph glyph-name="agrave" unicode="&#xe0;" horiz-adv-x="784" 
d="M32 0l224 800q12 48 43 75t67 27t67 -26t47 -76l288 -800h-144l-80 240h-368l-80 -240h-64zM128 1280h144l208 -288h-96zM192 304h320l-128 384q-21 74 -44 74q-22 0 -36 -58z" />
    <glyph glyph-name="aacute" unicode="&#xe1;" horiz-adv-x="784" 
d="M32 0l224 800q12 48 43 75t67 27t67 -26t47 -76l288 -800h-144l-80 240h-368l-80 -240h-64zM192 304h320l-128 384q-21 74 -44 74q-22 0 -36 -58zM225 992l192 272h144l-256 -272h-80z" />
    <glyph glyph-name="acircumflex" unicode="&#xe2;" horiz-adv-x="784" 
d="M32 0l224 800q12 48 43 75t67 27t67 -26t47 -76l288 -800h-144l-80 240h-368l-80 -240h-64zM80 992l224 272h128l224 -272h-112l-176 192l-176 -192h-112zM192 304h320l-128 384q-21 74 -44 74q-22 0 -36 -58z" />
    <glyph glyph-name="atilde" unicode="&#xe3;" horiz-adv-x="784" 
d="M32 0l224 800q12 48 43 75t67 27t67 -26t47 -76l288 -800h-144l-80 240h-368l-80 -240h-64zM81 977q20 153 133 153q37 0 120 -21.5t112 -21.5q77 0 99 82h64q-15 -161 -145 -161q-41 0 -121 18.5t-116 18.5q-72 0 -82 -68h-64zM192 304h320l-128 384q-21 74 -44 74
q-22 0 -36 -58z" />
    <glyph glyph-name="adieresis" unicode="&#xe4;" horiz-adv-x="784" 
d="M32 0l224 800q12 48 43 75t67 27t67 -26t47 -76l288 -800h-144l-80 240h-368l-80 -240h-64zM144 1088q0 40 21 62t51 22q29 0 50.5 -22.5t21.5 -61.5t-21.5 -61.5t-50.5 -22.5t-50.5 22t-21.5 62zM192 304h320l-128 384q-21 74 -44 74q-22 0 -36 -58zM432 1088
q0 40 21 62t51 22q29 0 50.5 -22.5t21.5 -61.5t-21.5 -61.5t-50.5 -22.5t-50.5 22t-21.5 62z" />
    <glyph glyph-name="aring" unicode="&#xe5;" horiz-adv-x="784" 
d="M32 0l224 800q12 48 43 75t67 27t67 -26t47 -76l288 -800h-144l-80 240h-368l-80 -240h-64zM177 1200q0 96 61.5 150t146.5 54q84 0 146 -54t62 -150q0 -102 -61.5 -159t-146.5 -57q-84 0 -146 57t-62 159zM192 304h320l-128 384q-21 74 -44 74q-22 0 -36 -58zM241 1200
q0 -74 42.5 -115t101.5 -41q58 0 101 41t43 115q0 68 -42.5 106t-101.5 38q-58 0 -101 -38t-43 -106z" />
    <glyph glyph-name="ae" unicode="&#xe6;" horiz-adv-x="1168" 
d="M0 0l480 816q26 39 46 51.5t66 12.5h544v-64h-352q-37 0 -50.5 -16.5t-13.5 -63.5v-256h336v-64h-336v-272q0 -47 13.5 -63.5t50.5 -16.5h336v-64h-384q-75 0 -109.5 31.5t-34.5 112.5v96h-384l-144 -240h-64zM256 304h336v512q0 6 -5 6q-23 0 -59 -54z" />
    <glyph glyph-name="ccedilla" unicode="&#xe7;" horiz-adv-x="832" 
d="M80 432q0 111 37 220t130.5 184.5t248.5 75.5q82 0 163 -43.5t125 -132.5l-48 -48q-45 90 -103 125t-137 35q-272 0 -272 -416q0 -134 34 -223t95 -133t143 -44q94 0 160.5 37.5t111.5 138.5l32 -32q-29 -86 -93 -141.5t-195 -66.5l-16 -80q192 0 192 -144
q0 -75 -54 -111t-138 -36q-111 0 -224 51l16 64q101 -51 195 -51q57 0 91 21.5t34 61.5q0 77 -103 77q-40 0 -89 -13l32 160q-129 16 -212 82t-119.5 165.5t-36.5 216.5z" />
    <glyph glyph-name="egrave" unicode="&#xe8;" horiz-adv-x="720" 
d="M112 128v640q0 61 28.5 86.5t99.5 25.5h432v-64h-352q-37 0 -50.5 -16.5t-13.5 -63.5v-256h336v-64h-336v-272q0 -47 13.5 -63.5t50.5 -16.5h336v-64h-416q-72 0 -100 28t-28 100zM161 1264h144l208 -288h-96z" />
    <glyph glyph-name="eacute" unicode="&#xe9;" horiz-adv-x="720" 
d="M112 128v640q0 61 28.5 86.5t99.5 25.5h432v-64h-352q-37 0 -50.5 -16.5t-13.5 -63.5v-256h336v-64h-336v-272q0 -47 13.5 -63.5t50.5 -16.5h336v-64h-416q-72 0 -100 28t-28 100zM305 992l192 272h144l-256 -272h-80z" />
    <glyph glyph-name="ecircumflex" unicode="&#xea;" horiz-adv-x="720" 
d="M112 128v640q0 61 28.5 86.5t99.5 25.5h432v-64h-352q-37 0 -50.5 -16.5t-13.5 -63.5v-256h336v-64h-336v-272q0 -47 13.5 -63.5t50.5 -16.5h336v-64h-416q-72 0 -100 28t-28 100zM129 959l224 272h128l224 -272h-112l-176 192l-176 -192h-112z" />
    <glyph glyph-name="edieresis" unicode="&#xeb;" horiz-adv-x="720" 
d="M112 128v640q0 61 28.5 86.5t99.5 25.5h432v-64h-352q-37 0 -50.5 -16.5t-13.5 -63.5v-256h336v-64h-336v-272q0 -47 13.5 -63.5t50.5 -16.5h336v-64h-416q-72 0 -100 28t-28 100zM193 1104q0 40 21 62t51 22q29 0 50.5 -22.5t21.5 -61.5t-21.5 -61.5t-50.5 -22.5
t-50.5 22t-21.5 62zM481 1104q0 40 21 62t51 22q29 0 50.5 -22.5t21.5 -61.5t-21.5 -61.5t-50.5 -22.5t-50.5 22t-21.5 62z" />
    <glyph glyph-name="igrave" unicode="&#xec;" horiz-adv-x="416" 
d="M-32 1280h144l208 -288h-96zM144 0v880h144v-880h-144z" />
    <glyph glyph-name="iacute" unicode="&#xed;" horiz-adv-x="416" 
d="M112 992l192 272h144l-256 -272h-80zM144 0v880h144v-880h-144z" />
    <glyph glyph-name="icircumflex" unicode="&#xee;" horiz-adv-x="416" 
d="M-80 992l224 272h128l224 -272h-112l-176 192l-176 -192h-112zM144 0v880h144v-880h-144z" />
    <glyph glyph-name="idieresis" unicode="&#xef;" horiz-adv-x="416" 
d="M17 1104q0 40 21 62t51 22q29 0 50.5 -22.5t21.5 -61.5t-21.5 -61.5t-50.5 -22.5t-50.5 22t-21.5 62zM144 0v880h144v-880h-144zM305 1104q0 40 21 62t51 22q29 0 50.5 -22.5t21.5 -61.5t-21.5 -61.5t-50.5 -22.5t-50.5 22t-21.5 62z" />
    <glyph glyph-name="eth" unicode="&#xf0;" horiz-adv-x="944" 
 />
    <glyph glyph-name="ntilde" unicode="&#xf1;" horiz-adv-x="896" 
d="M112 0v768q0 51 30 81t76 30q87 0 150 -95l336 -544v640h64v-848q0 -53 -25 -53q-30 0 -71 69l-400 640q-38 77 -71 77q-25 0 -25 -45v-720h-64zM192 1024q20 153 133 153q37 0 120 -21.5t112 -21.5q77 0 99 82h64q-15 -161 -145 -161q-41 0 -121 18.5t-116 18.5
q-72 0 -82 -68h-64z" />
    <glyph glyph-name="ograve" unicode="&#xf2;" horiz-adv-x="944" 
d="M48 448q0 211 115.5 329.5t300.5 118.5q118 0 216 -47t157 -148.5t59 -252.5q0 -149 -51.5 -258.5t-148.5 -165.5t-232 -56q-182 0 -299 133t-117 347zM176 448q0 -133 38 -226.5t103.5 -141.5t146.5 -48q85 0 144.5 39.5t95.5 105t50 134.5t14 137q0 99 -34 187.5
t-102.5 142.5t-167.5 54q-90 0 -156 -57.5t-99 -147t-33 -179.5zM271 1280h144l208 -288h-96z" />
    <glyph glyph-name="oacute" unicode="&#xf3;" horiz-adv-x="944" 
d="M48 448q0 211 115.5 329.5t300.5 118.5q118 0 216 -47t157 -148.5t59 -252.5q0 -149 -51.5 -258.5t-148.5 -165.5t-232 -56q-182 0 -299 133t-117 347zM176 448q0 -133 38 -226.5t103.5 -141.5t146.5 -48q85 0 144.5 39.5t95.5 105t50 134.5t14 137q0 99 -34 187.5
t-102.5 142.5t-167.5 54q-90 0 -156 -57.5t-99 -147t-33 -179.5zM305 976l192 272h144l-256 -272h-80z" />
    <glyph glyph-name="ocircumflex" unicode="&#xf4;" horiz-adv-x="944" 
d="M48 448q0 211 115.5 329.5t300.5 118.5q118 0 216 -47t157 -148.5t59 -252.5q0 -149 -51.5 -258.5t-148.5 -165.5t-232 -56q-182 0 -299 133t-117 347zM176 448q0 -133 38 -226.5t103.5 -141.5t146.5 -48q85 0 144.5 39.5t95.5 105t50 134.5t14 137q0 99 -34 187.5
t-102.5 142.5t-167.5 54q-90 0 -156 -57.5t-99 -147t-33 -179.5zM192 976l224 272h128l224 -272h-112l-176 192l-176 -192h-112z" />
    <glyph glyph-name="otilde" unicode="&#xf5;" horiz-adv-x="944" 
d="M48 448q0 211 115.5 329.5t300.5 118.5q118 0 216 -47t157 -148.5t59 -252.5q0 -149 -51.5 -258.5t-148.5 -165.5t-232 -56q-182 0 -299 133t-117 347zM176 448q0 -133 38 -226.5t103.5 -141.5t146.5 -48q85 0 144.5 39.5t95.5 105t50 134.5t14 137q0 99 -34 187.5
t-102.5 142.5t-167.5 54q-90 0 -156 -57.5t-99 -147t-33 -179.5zM305 976l192 272h144l-256 -272h-80zM535 976l192 272h144l-256 -272h-80z" />
    <glyph glyph-name="odieresis" unicode="&#xf6;" horiz-adv-x="944" 
d="M48 448q0 211 115.5 329.5t300.5 118.5q118 0 216 -47t157 -148.5t59 -252.5q0 -149 -51.5 -258.5t-148.5 -165.5t-232 -56q-182 0 -299 133t-117 347zM176 448q0 -133 38 -226.5t103.5 -141.5t146.5 -48q85 0 144.5 39.5t95.5 105t50 134.5t14 137q0 99 -34 187.5
t-102.5 142.5t-167.5 54q-90 0 -156 -57.5t-99 -147t-33 -179.5zM240 1104q0 40 21 62t51 22q29 0 50.5 -22.5t21.5 -61.5t-21.5 -61.5t-50.5 -22.5t-50.5 22t-21.5 62zM528 1104q0 40 21 62t51 22q29 0 50.5 -22.5t21.5 -61.5t-21.5 -61.5t-50.5 -22.5t-50.5 22t-21.5 62z
" />
    <glyph glyph-name="divide" unicode="&#xf7;" horiz-adv-x="1217" 
 />
    <glyph glyph-name="oslash" unicode="&#xf8;" horiz-adv-x="944" 
d="M48 448q0 115 32.5 202t88 143t128 84t151.5 28q99 0 192 -41l96 208h96l-128 -256q82 -69 129 -162.5t47 -237.5q0 -109 -33 -193.5t-90.5 -142t-127.5 -85t-149 -27.5q-102 0 -192 48l-112 -224h-96l144 256q-59 43 -97 99t-58.5 131t-20.5 170zM176 448
q0 -99 12.5 -160.5t29 -94.5t38.5 -65l336 672q-55 47 -130 47q-52 0 -103 -24t-93 -74t-66 -126.5t-24 -174.5zM320 80q79 -57 164 -57q113 0 190.5 99.5t77.5 293.5q0 85 -26 186t-70 134z" />
    <glyph glyph-name="ugrave" unicode="&#xf9;" horiz-adv-x="864" 
d="M128 256v624h128v-592q0 -100 55.5 -178t136.5 -78q114 0 169 61t55 163v624h64v-640q0 -74 -32.5 -140t-98.5 -107t-157 -41q-82 0 -155.5 36.5t-119 106.5t-45.5 161zM224 1280h144l208 -288h-96z" />
    <glyph glyph-name="uacute" unicode="&#xfa;" horiz-adv-x="864" 
d="M128 256v624h128v-592q0 -100 55.5 -178t136.5 -78q114 0 169 61t55 163v624h64v-640q0 -74 -32.5 -140t-98.5 -107t-157 -41q-82 0 -155.5 36.5t-119 106.5t-45.5 161zM321 992l192 272h144l-256 -272h-80z" />
    <glyph glyph-name="ucircumflex" unicode="&#xfb;" horiz-adv-x="864" 
d="M128 256v624h128v-592q0 -100 55.5 -178t136.5 -78q114 0 169 61t55 163v624h64v-640q0 -74 -32.5 -140t-98.5 -107t-157 -41q-82 0 -155.5 36.5t-119 106.5t-45.5 161zM251 992l192 272h144l-256 -272h-80zM481 992l192 272h144l-256 -272h-80z" />
    <glyph glyph-name="udieresis" unicode="&#xfc;" horiz-adv-x="864" 
d="M128 256v624h128v-592q0 -100 55.5 -178t136.5 -78q114 0 169 61t55 163v624h64v-640q0 -74 -32.5 -140t-98.5 -107t-157 -41q-82 0 -155.5 36.5t-119 106.5t-45.5 161zM240 1104q0 40 21 62t51 22q29 0 50.5 -22.5t21.5 -61.5t-21.5 -61.5t-50.5 -22.5t-50.5 22
t-21.5 62zM528 1104q0 40 21 62t51 22q29 0 50.5 -22.5t21.5 -61.5t-21.5 -61.5t-50.5 -22.5t-50.5 22t-21.5 62z" />
    <glyph glyph-name="yacute" unicode="&#xfd;" horiz-adv-x="784" 
 />
    <glyph glyph-name="thorn" unicode="&#xfe;" horiz-adv-x="944" 
 />
    <glyph glyph-name="ydieresis" unicode="&#xff;" horiz-adv-x="784" 
d="M0 880h144l272 -672l288 672h80l-528 -1264h-80l176 432zM177 1088q0 40 21 62t51 22q29 0 50.5 -22.5t21.5 -61.5t-21.5 -61.5t-50.5 -22.5t-50.5 22t-21.5 62zM465 1088q0 40 21 62t51 22q29 0 50.5 -22.5t21.5 -61.5t-21.5 -61.5t-50.5 -22.5t-50.5 22t-21.5 62z" />
    <glyph glyph-name="OE" unicode="&#x152;" horiz-adv-x="1952" 
d="M80 656q0 153 38 281.5t114.5 223.5t195 147t276.5 52q82 0 167 -21t155 -60.5t110 -94.5v144h752v-80h-608v-544h576v-80h-576v-544h624v-80h-768v128q-160 -160 -432 -160q-296 0 -460 185.5t-164 502.5zM240 656q0 -118 22.5 -224.5t75 -193t143.5 -138.5t223 -52
q111 0 195.5 43.5t135 104t76 123t25.5 97.5v464q0 112 -55 207.5t-153.5 152t-223.5 56.5q-163 0 -268 -97.5t-150.5 -243.5t-45.5 -299z" />
    <glyph glyph-name="oe" unicode="&#x153;" horiz-adv-x="1280" 
d="M32 448q0 212 116.5 338t299.5 126q56 0 110 -15t91.5 -39.5t54.5 -57.5q0 47 25 63.5t87 16.5h416v-64h-336q-37 0 -50.5 -16.5t-13.5 -63.5v-256h336v-64h-336v-288q0 -23 6 -37.5t20.5 -20.5t37.5 -6h336v-64h-432q-43 0 -61.5 16t-34.5 48q-26 -39 -95.5 -67.5
t-160.5 -28.5q-191 0 -303.5 131.5t-112.5 348.5zM160 448q0 -128 43.5 -223t110.5 -144t134 -49q240 0 240 272v304q0 76 -29.5 131t-84.5 82t-126 27q-89 0 -155 -60.5t-99.5 -154.5t-33.5 -185z" />
    <glyph glyph-name="circumflex" unicode="&#x2c6;" horiz-adv-x="416" 
d="M-80 992l224 272h128l224 -272h-112l-176 192l-176 -192h-112z" />
    <glyph glyph-name="tilde" unicode="&#x2dc;" horiz-adv-x="416" 
d="M-48 1040q20 153 133 153q37 0 120 -21.5t112 -21.5q77 0 99 82h64q-15 -161 -145 -161q-41 0 -121 18.5t-116 18.5q-72 0 -82 -68h-64z" />
    <glyph glyph-name="uni2000" unicode="&#x2000;" horiz-adv-x="918" 
 />
    <glyph glyph-name="uni2001" unicode="&#x2001;" horiz-adv-x="1836" 
 />
    <glyph glyph-name="uni2002" unicode="&#x2002;" horiz-adv-x="918" 
 />
    <glyph glyph-name="uni2003" unicode="&#x2003;" horiz-adv-x="1836" 
 />
    <glyph glyph-name="uni2004" unicode="&#x2004;" horiz-adv-x="612" 
 />
    <glyph glyph-name="uni2005" unicode="&#x2005;" horiz-adv-x="459" 
 />
    <glyph glyph-name="uni2006" unicode="&#x2006;" horiz-adv-x="306" 
 />
    <glyph glyph-name="uni2007" unicode="&#x2007;" horiz-adv-x="306" 
 />
    <glyph glyph-name="uni2008" unicode="&#x2008;" horiz-adv-x="229" 
 />
    <glyph glyph-name="uni2009" unicode="&#x2009;" horiz-adv-x="367" 
 />
    <glyph glyph-name="uni200A" unicode="&#x200a;" horiz-adv-x="102" 
 />
    <glyph glyph-name="uni2010" unicode="&#x2010;" horiz-adv-x="672" 
d="M128 272v112l448 224v-112z" />
    <glyph glyph-name="uni2011" unicode="&#x2011;" horiz-adv-x="672" 
d="M128 272v112l448 224v-112z" />
    <glyph glyph-name="figuredash" unicode="&#x2012;" horiz-adv-x="672" 
d="M128 272v112l448 224v-112z" />
    <glyph glyph-name="endash" unicode="&#x2013;" horiz-adv-x="1024" 
d="M0 384v112h1024v-112h-1024z" />
    <glyph glyph-name="emdash" unicode="&#x2014;" horiz-adv-x="2032" 
d="M0 384v96h1008h1040v-96h-1040h-1008z" />
    <glyph glyph-name="quoteleft" unicode="&#x2018;" horiz-adv-x="336" 
d="M66 939q0 25 14 53l208 368l-80 -416q-4 -38 -25 -56.5t-48 -18.5t-48 20t-21 50z" />
    <glyph glyph-name="quotedblleft" unicode="&#x201c;" horiz-adv-x="608" 
d="M33 955q0 25 14 53l208 368l-80 -416q-4 -38 -25 -56.5t-48 -18.5t-48 20t-21 50zM338 955q0 25 14 53l208 368l-80 -416q-4 -38 -25 -56.5t-48 -18.5t-48 20t-21 50z" />
    <glyph glyph-name="quotedblright" unicode="&#x201d;" horiz-adv-x="609" 
d="M16 831l96 432q6 38 28 57t53 19q32 0 54 -18t22 -47q0 -20 -13 -43zM321 831l96 432q6 38 28 57t53 19q32 0 54 -18t22 -47q0 -20 -13 -43z" />
    <glyph glyph-name="quotedblbase" unicode="&#x201e;" horiz-adv-x="609" 
d="M16 -383l96 432q6 38 28 57t53 19q32 0 54 -18t22 -47q0 -20 -13 -43zM321 -383l96 432q6 38 28 57t53 19q32 0 54 -18t22 -47q0 -20 -13 -43z" />
    <glyph glyph-name="bullet" unicode="&#x2022;" horiz-adv-x="1023" 
d="M192 431q0 40 23.5 62t56.5 22q32 0 56 -22t24 -62t-23.5 -62t-56.5 -22q-32 0 -56 22t-24 62z" />
    <glyph glyph-name="ellipsis" unicode="&#x2026;" horiz-adv-x="2032" 
d="M255 48q0 40 23.5 62t56.5 22q32 0 56 -22t24 -62t-23.5 -62t-56.5 -22q-32 0 -56 22t-24 62zM943 48q0 40 23.5 62t56.5 22q32 0 56 -22t24 -62t-23.5 -62t-56.5 -22q-32 0 -56 22t-24 62zM1617 48q0 40 23.5 62t56.5 22q32 0 56 -22t24 -62t-23.5 -62t-56.5 -22
q-32 0 -56 22t-24 62z" />
    <glyph glyph-name="uni202F" unicode="&#x202f;" horiz-adv-x="367" 
 />
    <glyph glyph-name="guilsinglleft" unicode="&#x2039;" horiz-adv-x="672" 
d="M208 384v96l304 240v-128l-224 -160l224 -160v-128z" />
    <glyph glyph-name="guilsinglright" unicode="&#x203a;" horiz-adv-x="672" 
d="M176 144v128l224 160l-224 160v128l304 -224v-112z" />
    <glyph glyph-name="uni205F" unicode="&#x205f;" horiz-adv-x="459" 
 />
    <glyph glyph-name="trademark" unicode="&#x2122;" horiz-adv-x="2016" 
d="M144 1232v96h656v-96h-272v-752h-112v752h-272zM944 480v848h176l272 -672l256 672h176v-848h-112v720l-288 -720h-80l-288 720v-720h-112z" />
    <glyph glyph-name="uni25FC" unicode="&#x25fc;" horiz-adv-x="880" 
d="M0 0v880h880v-880h-880z" />
    </font>
</defs>
</svg>
