<?xml version="1.0" encoding="UTF-8" standalone="no"?>
<!-- Created with Inkscape (http://www.inkscape.org/) -->

<svg
   xmlns:dc="http://purl.org/dc/elements/1.1/"
   xmlns:cc="http://creativecommons.org/ns#"
   xmlns:rdf="http://www.w3.org/1999/02/22-rdf-syntax-ns#"
   xmlns:svg="http://www.w3.org/2000/svg"
   xmlns="http://www.w3.org/2000/svg"
   xmlns:sodipodi="http://sodipodi.sourceforge.net/DTD/sodipodi-0.dtd"
   xmlns:inkscape="http://www.inkscape.org/namespaces/inkscape"
   width="1000"
   height="187.2663"
   id="svg3875"
   version="1.1"
   inkscape:version="0.48.5 r10040"
   sodipodi:docname="A.svg">
  <defs
     id="defs3877" />
  <sodipodi:namedview
     id="base"
     pagecolor="#ffffff"
     bordercolor="#666666"
     borderopacity="1.0"
     inkscape:pageopacity="0.0"
     inkscape:pageshadow="2"
     inkscape:zoom="0.40023349"
     inkscape:cx="794.69342"
     inkscape:cy="368.20848"
     inkscape:document-units="px"
     inkscape:current-layer="g4000"
     showgrid="false"
     fit-margin-left="0.5"
     fit-margin-bottom="0.5"
     fit-margin-top="0.5"
     fit-margin-right="0.5"
     inkscape:window-width="1059"
     inkscape:window-height="1025"
     inkscape:window-x="859"
     inkscape:window-y="-8"
     inkscape:window-maximized="0"
     showguides="true"
     inkscape:guide-bbox="true" />
  <metadata
     id="metadata3880">
    <rdf:RDF>
      <cc:Work
         rdf:about="">
        <dc:format>image/svg+xml</dc:format>
        <dc:type
           rdf:resource="http://purl.org/dc/dcmitype/StillImage" />
        <dc:title></dc:title>
      </cc:Work>
    </rdf:RDF>
  </metadata>
  <g
     inkscape:label="Layer 1"
     inkscape:groupmode="layer"
     id="layer1"
     transform="translate(-769.51878,-613.74178)">
    <g
       id="g4000"
       transform="matrix(4.5872377,0,0,4.5872377,-781.28404,-1096.2973)">
      <g
         transform="matrix(0.94863993,0,0,0.94863993,185.53656,-60.109094)"
         style="font-size:40px;font-style:normal;font-weight:normal;line-height:125%;letter-spacing:0px;word-spacing:0px;fill:#767676;fill-opacity:1;stroke:none;font-family:Sans"
         id="flowRoot4421">
        <path
           inkscape:connector-curvature="0"
           d="m 304.19214,488.95609 0,-28.64014 8.75976,0 c 4.40022,3e-5 7.92031,1.32673 10.56031,3.98011 2.63995,2.65342 3.95993,6.10007 3.95996,10.33996 -3e-5,4.23992 -1.32001,7.68657 -3.95996,10.33997 -2.64,2.6534 -6.16009,3.9801 -10.56031,3.9801 z m 3.68042,-3.52051 5.07934,0 c 3.30728,0 5.92752,-0.94665 7.86072,-2.83996 1.93317,-1.89331 2.89976,-4.5465 2.89978,-7.9596 -2e-5,-3.38621 -0.96661,-6.03269 -2.89978,-7.93945 -1.9332,-1.90672 -4.55344,-2.86008 -7.86072,-2.86011 l -5.07934,0 z"
           style="font-variant:normal;font-stretch:normal;fill:#767676;font-family:Product Sans;-inkscape-font-specification:Product Sans"
           id="path4444" />
        <path
           d="m 333.4554,488.95609 -3.68042,0 0,-19.59961 3.52051,0 0,3.19946 0.15991,0 c 0.37272,-1.06687 1.13911,-1.947 2.29919,-2.64038 1.16007,-0.69334 2.28678,-1.04002 3.38013,-1.04004 1.09333,2e-5 2.01354,0.16034 2.76062,0.48096 l -1.40014,3.43994 c -0.48016,-0.18716 -1.13364,-0.28074 -1.96045,-0.28076 -1.33302,2e-5 -2.51283,0.52675 -3.53943,1.5802 -1.02662,1.05348 -1.53993,2.43348 -1.53992,4.14001 z"
           style="font-variant:normal;font-stretch:normal;fill:#767676;font-family:Product Sans;-inkscape-font-specification:Product Sans"
           id="path4446"
           inkscape:connector-curvature="0" />
        <path
           d="m 348.74641,464.43705 c -0.50619,0.50621 -1.11918,0.7593 -1.83899,0.75927 -0.71981,3e-5 -1.33301,-0.25327 -1.8396,-0.75988 -0.50659,-0.50657 -0.75988,-1.11997 -0.75988,-1.84021 0,-0.72019 0.25329,-1.33359 0.75988,-1.84021 0.50659,-0.50657 1.11979,-0.75986 1.8396,-0.75989 0.71981,3e-5 1.33301,0.25332 1.8396,0.75989 0.50659,0.50662 0.75988,1.12002 0.75989,1.84021 -1e-5,0.72024 -0.2535,1.33384 -0.7605,1.84082 z m 10e-4,24.51904 -3.68042,0 0,-19.59961 3.68042,0 z"
           style="font-variant:normal;font-stretch:normal;fill:#767676;font-family:Product Sans;-inkscape-font-specification:Product Sans"
           id="path4448"
           inkscape:connector-curvature="0" />
        <path
           d="m 359.30507,488.95609 -7.91992,-19.59961 4.00024,0 5.75928,15.2002 0.0806,0 5.83985,-15.2002 3.91968,0 -7.99927,19.59961 z"
           style="font-variant:normal;font-stretch:normal;fill:#767676;font-family:Product Sans;-inkscape-font-specification:Product Sans"
           id="path4450"
           inkscape:connector-curvature="0" />
        <path
           d="m 381.27512,489.59574 c -2.96062,0 -5.36744,-0.98653 -7.22046,-2.9596 -1.85303,-1.97306 -2.77955,-4.46634 -2.77954,-7.47986 -1e-5,-2.85317 0.89986,-5.30658 2.69958,-7.36022 1.79972,-2.05362 4.09972,-3.08043 6.90002,-3.08045 2.90689,2e-5 5.23355,0.94668 6.97999,2.83997 1.7464,1.89332 2.6196,4.42689 2.61962,7.6007 l -0.0403,0.67994 -15.47974,0 c 0.10661,1.97347 0.7666,3.53353 1.97999,4.68017 1.21337,1.14665 2.63345,1.71998 4.26025,1.71997 2.63996,1e-5 4.42666,-1.12019 5.36011,-3.36059 l 3.28003,1.35986 c -0.64049,1.52019 -1.69395,2.79358 -3.1604,3.82019 -1.46649,1.02661 -3.26621,1.53992 -5.39917,1.53992 z m 5.27954,-12.79907 c -0.0798,-1.1206 -0.59308,-2.18749 -1.53992,-3.20069 -0.94687,-1.01317 -2.35373,-1.51976 -4.22058,-1.51977 -1.35987,10e-6 -2.53968,0.42665 -3.53943,1.2799 -0.99976,0.85329 -1.68641,2.00014 -2.05994,3.44056 z"
           style="font-variant:normal;font-stretch:normal;fill:#767676;font-family:Product Sans;-inkscape-font-specification:Product Sans"
           id="path4452"
           inkscape:connector-curvature="0" />
      </g>
      <g
         transform="matrix(1.6947472,0,0,1.6947472,-238.03606,-240.53267)"
         id="g4429">
        <path
           sodipodi:nodetypes="cccccccccccccc"
           inkscape:connector-curvature="0"
           id="path4431"
           d="m 357.96512,370.4171 -8.52682,0 0,2.53021 6.04721,0 c -0.29874,3.54804 -3.25059,5.06113 -6.03698,5.06113 -3.56489,0 -6.6756,-2.80484 -6.6756,-6.7362 0,-3.82971 2.96532,-6.77913 6.68347,-6.77913 2.8686,0 4.55892,1.82868 4.55892,1.82868 l 1.7716,-1.83459 c 0,0 -2.2739,-2.53142 -6.42107,-2.53142 -5.28042,0 -9.36585,4.45711 -9.36585,9.27137 0,4.71742 3.84306,9.31763 9.50069,9.31763 4.97621,0 8.61883,-3.4089 8.61883,-8.44955 0,-1.06348 -0.1544,-1.67813 -0.1544,-1.67813 z"
           style="fill:#4885ed;fill-opacity:1;stroke:none" />
        <path
           inkscape:connector-curvature="0"
           id="path4433"
           d="m 364.95009,368.58492 c -3.49872,0 -6.00609,2.73528 -6.00609,5.92545 0,3.23733 2.43201,6.02348 6.0472,6.02348 3.27274,0 5.95391,-2.50141 5.95391,-5.9539 0,-3.95705 -3.11882,-5.99503 -5.99502,-5.99503 z m 0.0348,2.34678 c 1.72058,0 3.35095,1.39099 3.35095,3.63243 0,2.1939 -1.62352,3.62453 -3.35886,3.62453 -1.9068,0 -3.41104,-1.52715 -3.41104,-3.64192 0,-2.06942 1.48559,-3.61504 3.41895,-3.61504 z"
           style="fill:#db3236;fill-opacity:1;stroke:none" />
        <path
           inkscape:connector-curvature="0"
           style="fill:#f4c20d;fill-opacity:1;stroke:none"
           d="m 378.01303,368.58492 c -3.49872,0 -6.00609,2.73528 -6.00609,5.92545 0,3.23733 2.43201,6.02348 6.0472,6.02348 3.27274,0 5.95391,-2.50141 5.95391,-5.9539 0,-3.95705 -3.11883,-5.99503 -5.99502,-5.99503 z m 0.0348,2.34678 c 1.72058,0 3.35095,1.39099 3.35095,3.63243 0,2.1939 -1.62352,3.62453 -3.35886,3.62453 -1.9068,0 -3.41104,-1.52715 -3.41104,-3.64192 0,-2.06942 1.48559,-3.61504 3.41895,-3.61504 z"
           id="path4435" />
        <path
           inkscape:connector-curvature="0"
           id="path4437"
           d="m 390.82468,368.59125 c -3.21144,0 -5.73568,2.81273 -5.73568,5.96972 0,3.59611 2.9265,5.98079 5.68033,5.98079 1.70277,0 2.60819,-0.67591 3.27662,-1.45171 l 0,1.17813 c 0,2.06127 -1.25157,3.2956 -3.14062,3.2956 -1.82493,0 -2.74031,-1.35696 -3.0584,-2.12696 l -2.29617,0.9599 c 0.8146,1.72235 2.45434,3.51858 5.37354,3.51858 3.19295,0 5.62656,-2.01118 5.62656,-6.22907 l 0,-10.73601 -2.50491,0 0,1.01209 c -0.76968,-0.82992 -1.82291,-1.37106 -3.22127,-1.37106 z m 0.23246,2.34203 c 1.57451,0 3.19123,1.34439 3.19123,3.64034 0,2.33363 -1.61328,3.61979 -3.22602,3.61979 -1.71208,0 -3.30509,-1.39018 -3.30509,-3.59765 0,-2.29376 1.65449,-3.66248 3.33988,-3.66248 z"
           style="fill:#4885ed;fill-opacity:1;stroke:none" />
        <path
           inkscape:connector-curvature="0"
           id="path4439"
           d="m 407.68855,368.57702 c -3.02931,0 -5.5728,2.41015 -5.5728,5.96656 0,3.76313 2.83511,5.99502 5.86377,5.99502 2.5278,0 4.07924,-1.38289 5.00508,-2.62194 l -2.06529,-1.37422 c -0.53593,0.83172 -1.43188,1.64464 -2.92714,1.64464 -1.6796,0 -2.45186,-0.9197 -2.9303,-1.81068 l 8.01128,-3.32407 -0.4159,-0.97413 c -0.77424,-1.90772 -2.57972,-3.50118 -4.9687,-3.50118 z m 0.10436,2.29775 c 1.09158,0 1.87716,0.58035 2.21078,1.27617 l -5.34982,2.23608 c -0.23064,-1.73119 1.40943,-3.51225 3.13904,-3.51225 z"
           style="fill:#db3236;fill-opacity:1;stroke:none" />
        <path
           inkscape:connector-curvature="0"
           id="path4441"
           d="m 398.29671,380.18372 2.63142,0 0,-17.61028 -2.63142,0 z"
           style="fill:#3cba54;fill-opacity:1;stroke:none" />
      </g>
    </g>
  </g>
</svg>
